<mxfile host="app.diagrams.net" agent="Mozilla/5.0 (Windows NT 10.0; Win64; x64; rv:138.0) Gecko/20100101 Firefox/138.0" version="27.0.9">
  <diagram name="Сторінка-1" id="eqWGwDv3pmZYsIRwiJ35">
    <mxGraphModel dx="2316" dy="1983" grid="1" gridSize="10" guides="1" tooltips="1" connect="1" arrows="1" fold="1" page="1" pageScale="1" pageWidth="827" pageHeight="1169" math="0" shadow="0">
      <root>
        <mxCell id="0" />
        <mxCell id="1" parent="0" />
        <mxCell id="SvTcNUEbPPGaCEV4D1N2-8" value="&lt;p style=&quot;margin:0px;margin-top:4px;text-align:center;&quot;&gt;&lt;i&gt;&amp;lt;&amp;lt;Interface&amp;gt;&amp;gt;&lt;/i&gt;&lt;br&gt;&lt;b&gt;CharacterBuilder&lt;/b&gt;&lt;/p&gt;&lt;hr size=&quot;1&quot; style=&quot;border-style:solid;&quot;&gt;&lt;p style=&quot;margin:0px;margin-left:4px;&quot;&gt;setName(name: String): CharacteerBuilder&lt;br&gt;setClothing(clothing: String): CharacteerBuilder&lt;/p&gt;&lt;p style=&quot;margin:0px;margin-left:4px;&quot;&gt;setHairColor(hairColor: String): CharacteerBuilder&lt;/p&gt;&amp;nbsp;setBodyType(type: String): CharacteerBuilder&lt;p style=&quot;margin:0px;margin-left:4px;&quot;&gt;setEyeColor(eyeColor: String): CharacteerBuilder&lt;/p&gt;&lt;p style=&quot;margin:0px;margin-left:4px;&quot;&gt;setHeight(height: int): CharacteerBuilder&lt;/p&gt;&lt;p style=&quot;margin:0px;margin-left:4px;&quot;&gt;addItem(item: String): CharacterBuilder&lt;/p&gt;&lt;p style=&quot;margin:0px;margin-left:4px;&quot;&gt;doDeed(deed: String): CharacterBuilder&lt;/p&gt;&lt;p style=&quot;margin:0px;margin-left:4px;&quot;&gt;build(): Character&lt;/p&gt;" style="verticalAlign=top;align=left;overflow=fill;html=1;whiteSpace=wrap;" vertex="1" parent="1">
          <mxGeometry x="550" y="-160" width="300" height="190" as="geometry" />
        </mxCell>
        <mxCell id="SvTcNUEbPPGaCEV4D1N2-9" value="Classname" style="swimlane;fontStyle=0;childLayout=stackLayout;horizontal=1;startSize=26;fillColor=none;horizontalStack=0;resizeParent=1;resizeParentMax=0;resizeLast=0;collapsible=1;marginBottom=0;whiteSpace=wrap;html=1;" vertex="1" parent="1">
          <mxGeometry x="-390" y="200" width="140" height="104" as="geometry" />
        </mxCell>
        <mxCell id="SvTcNUEbPPGaCEV4D1N2-10" value="+ field: type" style="text;strokeColor=none;fillColor=none;align=left;verticalAlign=top;spacingLeft=4;spacingRight=4;overflow=hidden;rotatable=0;points=[[0,0.5],[1,0.5]];portConstraint=eastwest;whiteSpace=wrap;html=1;" vertex="1" parent="SvTcNUEbPPGaCEV4D1N2-9">
          <mxGeometry y="26" width="140" height="26" as="geometry" />
        </mxCell>
        <mxCell id="SvTcNUEbPPGaCEV4D1N2-11" value="+ field: type" style="text;strokeColor=none;fillColor=none;align=left;verticalAlign=top;spacingLeft=4;spacingRight=4;overflow=hidden;rotatable=0;points=[[0,0.5],[1,0.5]];portConstraint=eastwest;whiteSpace=wrap;html=1;" vertex="1" parent="SvTcNUEbPPGaCEV4D1N2-9">
          <mxGeometry y="52" width="140" height="26" as="geometry" />
        </mxCell>
        <mxCell id="SvTcNUEbPPGaCEV4D1N2-12" value="+ field: type" style="text;strokeColor=none;fillColor=none;align=left;verticalAlign=top;spacingLeft=4;spacingRight=4;overflow=hidden;rotatable=0;points=[[0,0.5],[1,0.5]];portConstraint=eastwest;whiteSpace=wrap;html=1;" vertex="1" parent="SvTcNUEbPPGaCEV4D1N2-9">
          <mxGeometry y="78" width="140" height="26" as="geometry" />
        </mxCell>
        <mxCell id="SvTcNUEbPPGaCEV4D1N2-13" value="Character" style="swimlane;fontStyle=1;align=center;verticalAlign=top;childLayout=stackLayout;horizontal=1;startSize=26;horizontalStack=0;resizeParent=1;resizeParentMax=0;resizeLast=0;collapsible=1;marginBottom=0;whiteSpace=wrap;html=1;" vertex="1" parent="1">
          <mxGeometry x="630" y="60" width="160" height="320" as="geometry" />
        </mxCell>
        <mxCell id="SvTcNUEbPPGaCEV4D1N2-14" value="- name: String" style="text;strokeColor=none;fillColor=none;align=left;verticalAlign=top;spacingLeft=4;spacingRight=4;overflow=hidden;rotatable=0;points=[[0,0.5],[1,0.5]];portConstraint=eastwest;whiteSpace=wrap;html=1;" vertex="1" parent="SvTcNUEbPPGaCEV4D1N2-13">
          <mxGeometry y="26" width="160" height="26" as="geometry" />
        </mxCell>
        <mxCell id="SvTcNUEbPPGaCEV4D1N2-17" value="- height: int" style="text;strokeColor=none;fillColor=none;align=left;verticalAlign=top;spacingLeft=4;spacingRight=4;overflow=hidden;rotatable=0;points=[[0,0.5],[1,0.5]];portConstraint=eastwest;whiteSpace=wrap;html=1;" vertex="1" parent="SvTcNUEbPPGaCEV4D1N2-13">
          <mxGeometry y="52" width="160" height="26" as="geometry" />
        </mxCell>
        <mxCell id="SvTcNUEbPPGaCEV4D1N2-18" value="- bodyType: String" style="text;strokeColor=none;fillColor=none;align=left;verticalAlign=top;spacingLeft=4;spacingRight=4;overflow=hidden;rotatable=0;points=[[0,0.5],[1,0.5]];portConstraint=eastwest;whiteSpace=wrap;html=1;" vertex="1" parent="SvTcNUEbPPGaCEV4D1N2-13">
          <mxGeometry y="78" width="160" height="26" as="geometry" />
        </mxCell>
        <mxCell id="SvTcNUEbPPGaCEV4D1N2-19" value="- hairColor: String" style="text;strokeColor=none;fillColor=none;align=left;verticalAlign=top;spacingLeft=4;spacingRight=4;overflow=hidden;rotatable=0;points=[[0,0.5],[1,0.5]];portConstraint=eastwest;whiteSpace=wrap;html=1;" vertex="1" parent="SvTcNUEbPPGaCEV4D1N2-13">
          <mxGeometry y="104" width="160" height="26" as="geometry" />
        </mxCell>
        <mxCell id="SvTcNUEbPPGaCEV4D1N2-20" value="- eyeColor: String" style="text;strokeColor=none;fillColor=none;align=left;verticalAlign=top;spacingLeft=4;spacingRight=4;overflow=hidden;rotatable=0;points=[[0,0.5],[1,0.5]];portConstraint=eastwest;whiteSpace=wrap;html=1;" vertex="1" parent="SvTcNUEbPPGaCEV4D1N2-13">
          <mxGeometry y="130" width="160" height="26" as="geometry" />
        </mxCell>
        <mxCell id="SvTcNUEbPPGaCEV4D1N2-21" value="- clothing: String" style="text;strokeColor=none;fillColor=none;align=left;verticalAlign=top;spacingLeft=4;spacingRight=4;overflow=hidden;rotatable=0;points=[[0,0.5],[1,0.5]];portConstraint=eastwest;whiteSpace=wrap;html=1;" vertex="1" parent="SvTcNUEbPPGaCEV4D1N2-13">
          <mxGeometry y="156" width="160" height="26" as="geometry" />
        </mxCell>
        <mxCell id="SvTcNUEbPPGaCEV4D1N2-22" value="- inventory: List&amp;lt;String&amp;gt;" style="text;strokeColor=none;fillColor=none;align=left;verticalAlign=top;spacingLeft=4;spacingRight=4;overflow=hidden;rotatable=0;points=[[0,0.5],[1,0.5]];portConstraint=eastwest;whiteSpace=wrap;html=1;" vertex="1" parent="SvTcNUEbPPGaCEV4D1N2-13">
          <mxGeometry y="182" width="160" height="26" as="geometry" />
        </mxCell>
        <mxCell id="SvTcNUEbPPGaCEV4D1N2-23" value="- deeds: List&amp;lt;String&amp;gt;" style="text;strokeColor=none;fillColor=none;align=left;verticalAlign=top;spacingLeft=4;spacingRight=4;overflow=hidden;rotatable=0;points=[[0,0.5],[1,0.5]];portConstraint=eastwest;whiteSpace=wrap;html=1;" vertex="1" parent="SvTcNUEbPPGaCEV4D1N2-13">
          <mxGeometry y="208" width="160" height="26" as="geometry" />
        </mxCell>
        <mxCell id="SvTcNUEbPPGaCEV4D1N2-24" value="- alignment: String" style="text;strokeColor=none;fillColor=none;align=left;verticalAlign=top;spacingLeft=4;spacingRight=4;overflow=hidden;rotatable=0;points=[[0,0.5],[1,0.5]];portConstraint=eastwest;whiteSpace=wrap;html=1;" vertex="1" parent="SvTcNUEbPPGaCEV4D1N2-13">
          <mxGeometry y="234" width="160" height="26" as="geometry" />
        </mxCell>
        <mxCell id="SvTcNUEbPPGaCEV4D1N2-62" value="- alignment: String" style="text;strokeColor=none;fillColor=none;align=left;verticalAlign=top;spacingLeft=4;spacingRight=4;overflow=hidden;rotatable=0;points=[[0,0.5],[1,0.5]];portConstraint=eastwest;whiteSpace=wrap;html=1;" vertex="1" parent="SvTcNUEbPPGaCEV4D1N2-13">
          <mxGeometry y="260" width="160" height="26" as="geometry" />
        </mxCell>
        <mxCell id="SvTcNUEbPPGaCEV4D1N2-15" value="" style="line;strokeWidth=1;fillColor=none;align=left;verticalAlign=middle;spacingTop=-1;spacingLeft=3;spacingRight=3;rotatable=0;labelPosition=right;points=[];portConstraint=eastwest;strokeColor=inherit;" vertex="1" parent="SvTcNUEbPPGaCEV4D1N2-13">
          <mxGeometry y="286" width="160" height="8" as="geometry" />
        </mxCell>
        <mxCell id="SvTcNUEbPPGaCEV4D1N2-16" value="+ toString(): String" style="text;strokeColor=none;fillColor=none;align=left;verticalAlign=top;spacingLeft=4;spacingRight=4;overflow=hidden;rotatable=0;points=[[0,0.5],[1,0.5]];portConstraint=eastwest;whiteSpace=wrap;html=1;" vertex="1" parent="SvTcNUEbPPGaCEV4D1N2-13">
          <mxGeometry y="294" width="160" height="26" as="geometry" />
        </mxCell>
        <mxCell id="SvTcNUEbPPGaCEV4D1N2-59" style="edgeStyle=orthogonalEdgeStyle;rounded=0;orthogonalLoop=1;jettySize=auto;html=1;dashed=1;endArrow=block;endFill=0;" edge="1" parent="1" source="SvTcNUEbPPGaCEV4D1N2-25" target="SvTcNUEbPPGaCEV4D1N2-8">
          <mxGeometry relative="1" as="geometry">
            <Array as="points">
              <mxPoint x="470" y="-45" />
            </Array>
          </mxGeometry>
        </mxCell>
        <mxCell id="SvTcNUEbPPGaCEV4D1N2-25" value="EnemyBuilder" style="swimlane;fontStyle=1;align=center;verticalAlign=top;childLayout=stackLayout;horizontal=1;startSize=26;horizontalStack=0;resizeParent=1;resizeParentMax=0;resizeLast=0;collapsible=1;marginBottom=0;whiteSpace=wrap;html=1;" vertex="1" parent="1">
          <mxGeometry x="320" y="400" width="300" height="320" as="geometry" />
        </mxCell>
        <mxCell id="SvTcNUEbPPGaCEV4D1N2-26" value="# character: Character" style="text;strokeColor=none;fillColor=none;align=left;verticalAlign=top;spacingLeft=4;spacingRight=4;overflow=hidden;rotatable=0;points=[[0,0.5],[1,0.5]];portConstraint=eastwest;whiteSpace=wrap;html=1;" vertex="1" parent="SvTcNUEbPPGaCEV4D1N2-25">
          <mxGeometry y="26" width="300" height="26" as="geometry" />
        </mxCell>
        <mxCell id="SvTcNUEbPPGaCEV4D1N2-27" value="" style="line;strokeWidth=1;fillColor=none;align=left;verticalAlign=middle;spacingTop=-1;spacingLeft=3;spacingRight=3;rotatable=0;labelPosition=right;points=[];portConstraint=eastwest;strokeColor=inherit;" vertex="1" parent="SvTcNUEbPPGaCEV4D1N2-25">
          <mxGeometry y="52" width="300" height="8" as="geometry" />
        </mxCell>
        <mxCell id="SvTcNUEbPPGaCEV4D1N2-28" value="&lt;div&gt;+ EnemyBuilder()&lt;/div&gt;" style="text;strokeColor=none;fillColor=none;align=left;verticalAlign=top;spacingLeft=4;spacingRight=4;overflow=hidden;rotatable=0;points=[[0,0.5],[1,0.5]];portConstraint=eastwest;whiteSpace=wrap;html=1;" vertex="1" parent="SvTcNUEbPPGaCEV4D1N2-25">
          <mxGeometry y="60" width="300" height="26" as="geometry" />
        </mxCell>
        <mxCell id="SvTcNUEbPPGaCEV4D1N2-29" value="+ doDeed(deed: String): EnemyBuilder" style="text;strokeColor=none;fillColor=none;align=left;verticalAlign=top;spacingLeft=4;spacingRight=4;overflow=hidden;rotatable=0;points=[[0,0.5],[1,0.5]];portConstraint=eastwest;whiteSpace=wrap;html=1;" vertex="1" parent="SvTcNUEbPPGaCEV4D1N2-25">
          <mxGeometry y="86" width="300" height="26" as="geometry" />
        </mxCell>
        <mxCell id="SvTcNUEbPPGaCEV4D1N2-30" value="+ setName(name: String): EnemyBuilder" style="text;strokeColor=none;fillColor=none;align=left;verticalAlign=top;spacingLeft=4;spacingRight=4;overflow=hidden;rotatable=0;points=[[0,0.5],[1,0.5]];portConstraint=eastwest;whiteSpace=wrap;html=1;" vertex="1" parent="SvTcNUEbPPGaCEV4D1N2-25">
          <mxGeometry y="112" width="300" height="26" as="geometry" />
        </mxCell>
        <mxCell id="SvTcNUEbPPGaCEV4D1N2-31" value="+ setHeight(height: int): EnemyBuilder" style="text;strokeColor=none;fillColor=none;align=left;verticalAlign=top;spacingLeft=4;spacingRight=4;overflow=hidden;rotatable=0;points=[[0,0.5],[1,0.5]];portConstraint=eastwest;whiteSpace=wrap;html=1;" vertex="1" parent="SvTcNUEbPPGaCEV4D1N2-25">
          <mxGeometry y="138" width="300" height="26" as="geometry" />
        </mxCell>
        <mxCell id="SvTcNUEbPPGaCEV4D1N2-32" value="+ setBodyType(bodyType: String): EnemyBuilder" style="text;strokeColor=none;fillColor=none;align=left;verticalAlign=top;spacingLeft=4;spacingRight=4;overflow=hidden;rotatable=0;points=[[0,0.5],[1,0.5]];portConstraint=eastwest;whiteSpace=wrap;html=1;" vertex="1" parent="SvTcNUEbPPGaCEV4D1N2-25">
          <mxGeometry y="164" width="300" height="26" as="geometry" />
        </mxCell>
        <mxCell id="SvTcNUEbPPGaCEV4D1N2-33" value="+ setHairColor(hairColor: String): EnemyBuilder" style="text;strokeColor=none;fillColor=none;align=left;verticalAlign=top;spacingLeft=4;spacingRight=4;overflow=hidden;rotatable=0;points=[[0,0.5],[1,0.5]];portConstraint=eastwest;whiteSpace=wrap;html=1;" vertex="1" parent="SvTcNUEbPPGaCEV4D1N2-25">
          <mxGeometry y="190" width="300" height="26" as="geometry" />
        </mxCell>
        <mxCell id="SvTcNUEbPPGaCEV4D1N2-34" value="+ setEyeColor(eyeColor: String): EnemyBuilder" style="text;strokeColor=none;fillColor=none;align=left;verticalAlign=top;spacingLeft=4;spacingRight=4;overflow=hidden;rotatable=0;points=[[0,0.5],[1,0.5]];portConstraint=eastwest;whiteSpace=wrap;html=1;" vertex="1" parent="SvTcNUEbPPGaCEV4D1N2-25">
          <mxGeometry y="216" width="300" height="26" as="geometry" />
        </mxCell>
        <mxCell id="SvTcNUEbPPGaCEV4D1N2-35" value="+ setClothing(clothing: String): EnemyBuilder" style="text;strokeColor=none;fillColor=none;align=left;verticalAlign=top;spacingLeft=4;spacingRight=4;overflow=hidden;rotatable=0;points=[[0,0.5],[1,0.5]];portConstraint=eastwest;whiteSpace=wrap;html=1;" vertex="1" parent="SvTcNUEbPPGaCEV4D1N2-25">
          <mxGeometry y="242" width="300" height="26" as="geometry" />
        </mxCell>
        <mxCell id="SvTcNUEbPPGaCEV4D1N2-36" value="+ addItem(item: String): EnemyBuilder" style="text;strokeColor=none;fillColor=none;align=left;verticalAlign=top;spacingLeft=4;spacingRight=4;overflow=hidden;rotatable=0;points=[[0,0.5],[1,0.5]];portConstraint=eastwest;whiteSpace=wrap;html=1;" vertex="1" parent="SvTcNUEbPPGaCEV4D1N2-25">
          <mxGeometry y="268" width="300" height="26" as="geometry" />
        </mxCell>
        <mxCell id="SvTcNUEbPPGaCEV4D1N2-37" value="+ build(): Character" style="text;strokeColor=none;fillColor=none;align=left;verticalAlign=top;spacingLeft=4;spacingRight=4;overflow=hidden;rotatable=0;points=[[0,0.5],[1,0.5]];portConstraint=eastwest;whiteSpace=wrap;html=1;" vertex="1" parent="SvTcNUEbPPGaCEV4D1N2-25">
          <mxGeometry y="294" width="300" height="26" as="geometry" />
        </mxCell>
        <mxCell id="SvTcNUEbPPGaCEV4D1N2-60" style="edgeStyle=orthogonalEdgeStyle;rounded=0;orthogonalLoop=1;jettySize=auto;html=1;dashed=1;endArrow=block;endFill=0;" edge="1" parent="1" source="SvTcNUEbPPGaCEV4D1N2-38" target="SvTcNUEbPPGaCEV4D1N2-8">
          <mxGeometry relative="1" as="geometry">
            <Array as="points">
              <mxPoint x="950" y="-45" />
            </Array>
          </mxGeometry>
        </mxCell>
        <mxCell id="SvTcNUEbPPGaCEV4D1N2-38" value="HeroBuilder" style="swimlane;fontStyle=1;align=center;verticalAlign=top;childLayout=stackLayout;horizontal=1;startSize=26;horizontalStack=0;resizeParent=1;resizeParentMax=0;resizeLast=0;collapsible=1;marginBottom=0;whiteSpace=wrap;html=1;" vertex="1" parent="1">
          <mxGeometry x="800" y="400" width="300" height="320" as="geometry" />
        </mxCell>
        <mxCell id="SvTcNUEbPPGaCEV4D1N2-39" value="# character: Character" style="text;strokeColor=none;fillColor=none;align=left;verticalAlign=top;spacingLeft=4;spacingRight=4;overflow=hidden;rotatable=0;points=[[0,0.5],[1,0.5]];portConstraint=eastwest;whiteSpace=wrap;html=1;" vertex="1" parent="SvTcNUEbPPGaCEV4D1N2-38">
          <mxGeometry y="26" width="300" height="26" as="geometry" />
        </mxCell>
        <mxCell id="SvTcNUEbPPGaCEV4D1N2-40" value="" style="line;strokeWidth=1;fillColor=none;align=left;verticalAlign=middle;spacingTop=-1;spacingLeft=3;spacingRight=3;rotatable=0;labelPosition=right;points=[];portConstraint=eastwest;strokeColor=inherit;" vertex="1" parent="SvTcNUEbPPGaCEV4D1N2-38">
          <mxGeometry y="52" width="300" height="8" as="geometry" />
        </mxCell>
        <mxCell id="SvTcNUEbPPGaCEV4D1N2-41" value="&lt;div&gt;+ EnemyBuilder()&lt;/div&gt;" style="text;strokeColor=none;fillColor=none;align=left;verticalAlign=top;spacingLeft=4;spacingRight=4;overflow=hidden;rotatable=0;points=[[0,0.5],[1,0.5]];portConstraint=eastwest;whiteSpace=wrap;html=1;" vertex="1" parent="SvTcNUEbPPGaCEV4D1N2-38">
          <mxGeometry y="60" width="300" height="26" as="geometry" />
        </mxCell>
        <mxCell id="SvTcNUEbPPGaCEV4D1N2-42" value="+ doDeed(deed: String): EnemyBuilder" style="text;strokeColor=none;fillColor=none;align=left;verticalAlign=top;spacingLeft=4;spacingRight=4;overflow=hidden;rotatable=0;points=[[0,0.5],[1,0.5]];portConstraint=eastwest;whiteSpace=wrap;html=1;" vertex="1" parent="SvTcNUEbPPGaCEV4D1N2-38">
          <mxGeometry y="86" width="300" height="26" as="geometry" />
        </mxCell>
        <mxCell id="SvTcNUEbPPGaCEV4D1N2-43" value="+ setName(name: String): EnemyBuilder" style="text;strokeColor=none;fillColor=none;align=left;verticalAlign=top;spacingLeft=4;spacingRight=4;overflow=hidden;rotatable=0;points=[[0,0.5],[1,0.5]];portConstraint=eastwest;whiteSpace=wrap;html=1;" vertex="1" parent="SvTcNUEbPPGaCEV4D1N2-38">
          <mxGeometry y="112" width="300" height="26" as="geometry" />
        </mxCell>
        <mxCell id="SvTcNUEbPPGaCEV4D1N2-44" value="+ setHeight(height: int): EnemyBuilder" style="text;strokeColor=none;fillColor=none;align=left;verticalAlign=top;spacingLeft=4;spacingRight=4;overflow=hidden;rotatable=0;points=[[0,0.5],[1,0.5]];portConstraint=eastwest;whiteSpace=wrap;html=1;" vertex="1" parent="SvTcNUEbPPGaCEV4D1N2-38">
          <mxGeometry y="138" width="300" height="26" as="geometry" />
        </mxCell>
        <mxCell id="SvTcNUEbPPGaCEV4D1N2-45" value="+ setBodyType(bodyType: String): EnemyBuilder" style="text;strokeColor=none;fillColor=none;align=left;verticalAlign=top;spacingLeft=4;spacingRight=4;overflow=hidden;rotatable=0;points=[[0,0.5],[1,0.5]];portConstraint=eastwest;whiteSpace=wrap;html=1;" vertex="1" parent="SvTcNUEbPPGaCEV4D1N2-38">
          <mxGeometry y="164" width="300" height="26" as="geometry" />
        </mxCell>
        <mxCell id="SvTcNUEbPPGaCEV4D1N2-46" value="+ setHairColor(hairColor: String): EnemyBuilder" style="text;strokeColor=none;fillColor=none;align=left;verticalAlign=top;spacingLeft=4;spacingRight=4;overflow=hidden;rotatable=0;points=[[0,0.5],[1,0.5]];portConstraint=eastwest;whiteSpace=wrap;html=1;" vertex="1" parent="SvTcNUEbPPGaCEV4D1N2-38">
          <mxGeometry y="190" width="300" height="26" as="geometry" />
        </mxCell>
        <mxCell id="SvTcNUEbPPGaCEV4D1N2-47" value="+ setEyeColor(eyeColor: String): EnemyBuilder" style="text;strokeColor=none;fillColor=none;align=left;verticalAlign=top;spacingLeft=4;spacingRight=4;overflow=hidden;rotatable=0;points=[[0,0.5],[1,0.5]];portConstraint=eastwest;whiteSpace=wrap;html=1;" vertex="1" parent="SvTcNUEbPPGaCEV4D1N2-38">
          <mxGeometry y="216" width="300" height="26" as="geometry" />
        </mxCell>
        <mxCell id="SvTcNUEbPPGaCEV4D1N2-48" value="+ setClothing(clothing: String): EnemyBuilder" style="text;strokeColor=none;fillColor=none;align=left;verticalAlign=top;spacingLeft=4;spacingRight=4;overflow=hidden;rotatable=0;points=[[0,0.5],[1,0.5]];portConstraint=eastwest;whiteSpace=wrap;html=1;" vertex="1" parent="SvTcNUEbPPGaCEV4D1N2-38">
          <mxGeometry y="242" width="300" height="26" as="geometry" />
        </mxCell>
        <mxCell id="SvTcNUEbPPGaCEV4D1N2-49" value="+ addItem(item: String): EnemyBuilder" style="text;strokeColor=none;fillColor=none;align=left;verticalAlign=top;spacingLeft=4;spacingRight=4;overflow=hidden;rotatable=0;points=[[0,0.5],[1,0.5]];portConstraint=eastwest;whiteSpace=wrap;html=1;" vertex="1" parent="SvTcNUEbPPGaCEV4D1N2-38">
          <mxGeometry y="268" width="300" height="26" as="geometry" />
        </mxCell>
        <mxCell id="SvTcNUEbPPGaCEV4D1N2-50" value="+ build(): Character" style="text;strokeColor=none;fillColor=none;align=left;verticalAlign=top;spacingLeft=4;spacingRight=4;overflow=hidden;rotatable=0;points=[[0,0.5],[1,0.5]];portConstraint=eastwest;whiteSpace=wrap;html=1;" vertex="1" parent="SvTcNUEbPPGaCEV4D1N2-38">
          <mxGeometry y="294" width="300" height="26" as="geometry" />
        </mxCell>
        <mxCell id="SvTcNUEbPPGaCEV4D1N2-51" value="Director" style="swimlane;fontStyle=1;align=center;verticalAlign=top;childLayout=stackLayout;horizontal=1;startSize=26;horizontalStack=0;resizeParent=1;resizeParentMax=0;resizeLast=0;collapsible=1;marginBottom=0;whiteSpace=wrap;html=1;" vertex="1" parent="1">
          <mxGeometry y="-104" width="390" height="164" as="geometry" />
        </mxCell>
        <mxCell id="SvTcNUEbPPGaCEV4D1N2-54" value="- characterBuilder: CharacterBuilder" style="text;strokeColor=none;fillColor=none;align=left;verticalAlign=top;spacingLeft=4;spacingRight=4;overflow=hidden;rotatable=0;points=[[0,0.5],[1,0.5]];portConstraint=eastwest;whiteSpace=wrap;html=1;" vertex="1" parent="SvTcNUEbPPGaCEV4D1N2-51">
          <mxGeometry y="26" width="390" height="26" as="geometry" />
        </mxCell>
        <mxCell id="SvTcNUEbPPGaCEV4D1N2-53" value="" style="line;strokeWidth=1;fillColor=none;align=left;verticalAlign=middle;spacingTop=-1;spacingLeft=3;spacingRight=3;rotatable=0;labelPosition=right;points=[];portConstraint=eastwest;strokeColor=inherit;" vertex="1" parent="SvTcNUEbPPGaCEV4D1N2-51">
          <mxGeometry y="52" width="390" height="8" as="geometry" />
        </mxCell>
        <mxCell id="SvTcNUEbPPGaCEV4D1N2-63" value="+ Director(characterBuilder: CharacterBuilder)" style="text;strokeColor=none;fillColor=none;align=left;verticalAlign=top;spacingLeft=4;spacingRight=4;overflow=hidden;rotatable=0;points=[[0,0.5],[1,0.5]];portConstraint=eastwest;whiteSpace=wrap;html=1;" vertex="1" parent="SvTcNUEbPPGaCEV4D1N2-51">
          <mxGeometry y="60" width="390" height="26" as="geometry" />
        </mxCell>
        <mxCell id="SvTcNUEbPPGaCEV4D1N2-65" value="+ createDreamHero(): Character" style="text;strokeColor=none;fillColor=none;align=left;verticalAlign=top;spacingLeft=4;spacingRight=4;overflow=hidden;rotatable=0;points=[[0,0.5],[1,0.5]];portConstraint=eastwest;whiteSpace=wrap;html=1;" vertex="1" parent="SvTcNUEbPPGaCEV4D1N2-51">
          <mxGeometry y="86" width="390" height="26" as="geometry" />
        </mxCell>
        <mxCell id="SvTcNUEbPPGaCEV4D1N2-55" value="+ createUltimateEnemy(): Character" style="text;strokeColor=none;fillColor=none;align=left;verticalAlign=top;spacingLeft=4;spacingRight=4;overflow=hidden;rotatable=0;points=[[0,0.5],[1,0.5]];portConstraint=eastwest;whiteSpace=wrap;html=1;" vertex="1" parent="SvTcNUEbPPGaCEV4D1N2-51">
          <mxGeometry y="112" width="390" height="26" as="geometry" />
        </mxCell>
        <mxCell id="SvTcNUEbPPGaCEV4D1N2-64" value="+ changeCharacteerBuilder(characterBuilder: CharacterBuilder): void" style="text;strokeColor=none;fillColor=none;align=left;verticalAlign=top;spacingLeft=4;spacingRight=4;overflow=hidden;rotatable=0;points=[[0,0.5],[1,0.5]];portConstraint=eastwest;whiteSpace=wrap;html=1;" vertex="1" parent="SvTcNUEbPPGaCEV4D1N2-51">
          <mxGeometry y="138" width="390" height="26" as="geometry" />
        </mxCell>
        <mxCell id="SvTcNUEbPPGaCEV4D1N2-56" style="edgeStyle=orthogonalEdgeStyle;rounded=0;orthogonalLoop=1;jettySize=auto;html=1;endArrow=open;endFill=0;" edge="1" parent="1" source="SvTcNUEbPPGaCEV4D1N2-26" target="SvTcNUEbPPGaCEV4D1N2-13">
          <mxGeometry relative="1" as="geometry" />
        </mxCell>
        <mxCell id="SvTcNUEbPPGaCEV4D1N2-57" style="edgeStyle=orthogonalEdgeStyle;rounded=0;orthogonalLoop=1;jettySize=auto;html=1;endArrow=open;endFill=0;" edge="1" parent="1" source="SvTcNUEbPPGaCEV4D1N2-39" target="SvTcNUEbPPGaCEV4D1N2-13">
          <mxGeometry relative="1" as="geometry" />
        </mxCell>
        <mxCell id="SvTcNUEbPPGaCEV4D1N2-66" style="edgeStyle=orthogonalEdgeStyle;rounded=0;orthogonalLoop=1;jettySize=auto;html=1;endArrow=open;endFill=0;" edge="1" parent="1" source="SvTcNUEbPPGaCEV4D1N2-54" target="SvTcNUEbPPGaCEV4D1N2-8">
          <mxGeometry relative="1" as="geometry" />
        </mxCell>
      </root>
    </mxGraphModel>
  </diagram>
</mxfile>
